<svg xmlns="http://www.w3.org/2000/svg" viewBox="0 0 464 464"><style>.a{fill:#9D6E48;}.b{fill:#8D5F3D;}.c{fill:#F6B47B;}.d{fill:#E2A071;}.e{fill:#623F33;}</style><path d="M424 160c0 0-33 4-48-48C355.3 40.3 309.3 0 232 0S108.7 40.3 88 112c-15 52-48 48-48 48s-18 40 24 64H48c0 0 9.7 48.6 58.7 55.2C112.9 293.2 132.4 312 192 312h40 40c59.6 0 79.1-18.8 85.3-32.8C406.3 272.6 416 224 416 224h-16C442 200 424 160 424 160z" class="a"/><path d="M312 160c-99-50-93-138-80-160C154.7 0 108.7 40.3 88 112c-15 52-48 48-48 48s-18 40 24 64H48c0 0 9.7 48.6 58.7 55.2C112.9 293.2 132.4 312 192 312L312 160z" class="b"/><path d="M380.4 436.8l-9.2-68.9c-2-14.7-11.9-27.1-25.8-32.3l-54.4-20c-6.5-2.2-10.9-8.3-10.9-15.2v-25.8l34.5-14.4C332.3 252.9 344 235.4 344 216v-8c13.3 0 24-10.7 24-24s-10.7-24-24-24v-16c0-22.1-17.9-40-40-40H160c-22.1 0-40 17.9-40 40v16c-13.3 0-24 10.7-24 24s10.7 24 24 24v8c0 19.4 11.7 36.9 29.5 44.3L184 274.7v25.8c0 6.9-4.4 13-10.9 15.2l-54.4 20c-13.9 5.1-23.9 17.5-25.8 32.3l-9.2 68.9C81.7 451.2 92.9 464 107.4 464H232h124.6C371.1 464 382.3 451.2 380.4 436.8z" class="c"/><path d="M184 275v25.5c0 5.7-3 10.9-7.8 13.7 63.8 11 100.2-34.8 103.5-39.2H184V275z" class="d"/><path d="M344 160v-16c0-22.1-17.9-40-40-40H160c-22.1 0-40 17.9-40 40v16c-13.3 0-24 10.7-24 24s10.7 24 24 24v8c0 19.4 11.7 36.9 29.5 44.3l51.7 21.5c9.8 4.1 20.2 6.2 30.8 6.2l0 0c10.6 0 21-2.1 30.8-6.2l51.7-21.5C332.3 252.9 344 235.4 344 216v-8c13.3 0 24-10.7 24-24S357.3 160 344 160z" fill="#FDC88E"/><path d="M176 192L176 192c-4.4 0-8-3.6-8-8v-8c0-4.4 3.6-8 8-8l0 0c4.4 0 8 3.6 8 8v8C184 188.4 180.4 192 176 192z" class="e"/><path d="M232 248.2c-14.2 0-27.5-3.5-36.5-9.6 -3.7-2.5-4.6-7.5-2.1-11.1 2.5-3.6 7.5-4.6 11.1-2.1 6.3 4.3 16.6 6.8 27.5 6.8s21.2-2.6 27.5-6.8c3.7-2.5 8.6-1.5 11.1 2.1 2.5 3.7 1.5 8.6-2.1 11.1C259.5 244.7 246.2 248.2 232 248.2z" class="d"/><path d="M323.8 326.7L295.1 372.7c-4.4 7-12.1 11.3-20.4 11.3h-85.4c-8.3 0-16-4.3-20.4-11.3l-28.8-46.1c-2.3-3.7-7.2-4.9-10.9-2.6l-26.3 15.8c-3.8 2.3-5 7.3-2.7 11.1L136 408h192l35.7-57.1c2.4-3.8 1.2-8.8-2.7-11.1l-26.3-15.8C331 321.8 326.1 323 323.8 326.7z" fill="#F23F44"/><rect x="136" y="408" width="192" height="56" fill="#FF4F4F"/><path d="M162 243.7c-6.5-6.9-10-16.1-10-25.6v-84.9c27.8 19.5 66.2 34.7 138 38.8l-7-24c0 0-49.8-28-74-44h-49c-2.7 0-5.4 0.3-8 0.8v0c-0.6 0.1-1.2 0.3-1.8 0.4 -0.1 0-0.1 0-0.2 0 0 0 0 0 0 0C132.7 109.7 120 125.4 120 144v16c-13.3 0-24 10.7-24 24s10.7 24 24 24v8c0 19.4 11.7 36.9 29.5 44.3l51.7 21.5c2.5 1.1 5.1 2 7.7 2.7C186.1 267.9 170.9 253.3 162 243.7z" class="c"/><path d="M288 192L288 192c-4.4 0-8-3.6-8-8v-8c0-4.4 3.6-8 8-8l0 0c4.4 0 8 3.6 8 8v8C296 188.4 292.4 192 288 192z" class="e"/><path d="M312 160l-8-16c0 0 25.3 16 41 16V100H156.2C186.4 128.9 224.1 160 312 160z" class="a"/><path d="M312 160L312 160c-33.6-17-55.1-38.3-68.4-60h-87.5C186.4 128.9 224.1 160 312 160z" class="b"/></svg>

