<svg xmlns="http://www.w3.org/2000/svg" viewBox="0 0 369.7 369.7">
  <style>.a{fill:#010002;}</style>
  <path d="M222.8 170.7h121.9c13.5 0 24.4-10.9 24.4-24.4V24.4C369.1 10.9 358.2 0 344.7 0H222.8c-13.5 0-24.4 10.9-24.4 24.4v121.9C198.4 159.8 209.3 170.7 222.8 170.7zM241.3 75.5h32.7V42.9c0-5.4 4.4-9.8 9.8-9.8 5.4 0 9.8 4.4 9.8 9.8v32.7h32.7c5.4 0 9.8 4.4 9.8 9.8 0 5.4-4.4 9.8-9.8 9.8h-32.7v32.7c0 5.4-4.4 9.8-9.8 9.8 -5.4 0-9.8-4.4-9.8-9.8V95.2H241.3c-5.4 0-9.8-4.4-9.8-9.8C231.5 79.9 235.9 75.5 241.3 75.5z" class="a"/>
  <path d="M25 369.7h121.9c13.5 0 24.4-10.9 24.4-24.4V223.4c0-13.5-10.9-24.4-24.4-24.4H25c-13.5 0-24.4 10.9-24.4 24.4v121.9C0.6 358.8 11.5 369.7 25 369.7zM49 247.4c3.8-3.8 10-3.8 13.9 0l23.1 23.1 23.1-23.1c3.8-3.8 10-3.8 13.9 0 3.8 3.8 3.8 10 0 13.9l-23.1 23.1 23.1 23.1c3.8 3.8 3.8 10 0 13.9 -3.8 3.8-10 3.8-13.9 0l-23.1-23.1 -23.1 23.1c-3.8 3.8-10 3.8-13.9 0 -3.8-3.8-3.8-10 0-13.9L72.1 284.4l-23.1-23.1C45.2 257.4 45.2 251.2 49 247.4z" class="a"/>
  <path d="M25 170.7h121.9c13.5 0 24.4-10.9 24.4-24.4V24.4C171.3 10.9 160.4 0 146.9 0H25C11.5 0 0.6 10.9 0.6 24.4v121.9C0.6 159.8 11.5 170.7 25 170.7zM49.4 77.2h73.2c4.5 0 8.1 3.6 8.1 8.1s-3.6 8.1-8.1 8.1H49.4c-4.5 0-8.1-3.6-8.1-8.1S44.9 77.2 49.4 77.2z" class="a"/>
  <path d="M222.8 369.7h121.9c13.5 0 24.4-10.9 24.4-24.4V223.4c0-13.5-10.9-24.4-24.4-24.4H222.8c-13.5 0-24.4 10.9-24.4 24.4v121.9C198.4 358.8 209.3 369.7 222.8 369.7zM283.8 335.2c-6.7 0-12.2-5.5-12.2-12.2 0-6.7 5.5-12.2 12.2-12.2 6.7 0 12.2 5.5 12.2 12.2C296 329.8 290.5 335.2 283.8 335.2zM283.8 245.8c6.7 0 12.2 5.5 12.2 12.2 0 6.7-5.5 12.2-12.2 12.2 -6.7 0-12.2-5.5-12.2-12.2C271.6 251.3 277 245.8 283.8 245.8zM247.2 283.4h73.2c4.5 0 8.1 3.6 8.1 8.1 0 4.5-3.6 8.1-8.1 8.1h-73.2c-4.5 0-8.1-3.6-8.1-8.1C239.1 287.1 242.7 283.4 247.2 283.4z" class="a"/>
</svg>